<?xml version="1.0" encoding="UTF-8"?>
<svg width="16px" height="24px" viewBox="0 0 16 24" version="1.1" xmlns="http://www.w3.org/2000/svg" xmlns:xlink="http://www.w3.org/1999/xlink">
    <!-- Generator: Sketch 51.1 (57501) - http://www.bohemiancoding.com/sketch -->
    <title>Group 31</title>
    <desc>Created with Sketch.</desc>
    <defs>
        <linearGradient x1="0%" y1="0%" x2="101.999998%" y2="100.999999%" id="linearGradient-1">
            <stop stop-color="#237FAE" offset="0%"></stop>
            <stop stop-color="#793DC2" offset="100%"></stop>
        </linearGradient>
        <path d="M8.078125,0.25 C9.25000586,0.25 10.2981725,0.451820898 11.2226562,0.85546875 C12.14714,1.2591166 12.9251271,1.80924131 13.5566406,2.50585938 C14.1881542,3.20247744 14.6699202,4.01301621 15.0019531,4.9375 C15.333986,5.86198379 15.5,6.83853652 15.5,7.8671875 C15.5,8.90885938 15.2949239,9.97330186 14.8847656,11.0605469 C14.4746073,12.1477919 13.9570344,13.2154896 13.3320312,14.2636719 C12.7070281,15.3118542 12.1751992,16.3046828 11.4460288,17.2421875 C10.7168585,18.1796922 9.41953078,20.25 8.2734375,20.25 C7.12734422,20.25 5.64388377,18.1666713 4.85611941,17.2421875 C4.06835506,16.3177037 3.52409189,15.2858124 2.85351562,14.2636719 C2.18293936,13.2415313 1.62304912,12.1901096 1.17382812,11.109375 C0.724607129,10.0286404 0.5,8.94792207 0.5,7.8671875 C0.5,6.83853652 0.701820898,5.86198379 1.10546875,4.9375 C1.5091166,4.01301621 2.05598613,3.20247744 2.74609375,2.50585938 C3.43620137,1.80924131 4.24022979,1.2591166 5.15820312,0.85546875 C6.07617646,0.451820898 7.04947402,0.25 8.078125,0.25 Z M8.25,5.25 C9.01389271,5.25 9.66319177,5.51974557 10.1979167,6.05924479 C10.7326416,6.59874402 11,7.24565595 11,8 C11,8.76389271 10.7326416,9.41319177 10.1979167,9.94791667 C9.66319177,10.4826416 9.01389271,10.75 8.25,10.75 C7.49565595,10.75 6.84874402,10.4826416 6.30924479,9.94791667 C5.76974557,9.41319177 5.5,8.76389271 5.5,8 C5.5,7.24565595 5.76974557,6.59874402 6.30924479,6.05924479 C6.84874402,5.51974557 7.49565595,5.25 8.25,5.25 Z" id="path-2"></path>
        <path d="M4.60151871,19 C3.08408633,19.6641895 2.32537014,20.3831708 2.32537014,21.156944 C2.32537014,22.3176037 5.37380959,23.3138879 8.1305288,23.3138879 C10.887248,23.3138879 13.3406852,22.8113069 13.3406852,21.5 C13.3406852,20.5682325 12.6841413,19.7348992 11.3710535,19" id="path-3"></path>
    </defs>
    <g id="PHOOF-FINALIZING" stroke="none" stroke-width="1" fill="none" fill-rule="evenodd">
        <g id="option-one-copy-577" transform="translate(-120.000000, -633.000000)">
            <g id="Group-31" transform="translate(120.000000, 633.000000)">
                <g id="location-pin---simple-line-icons">
                    <use fill="url(#linearGradient-1)" xlink:href="#path-2"></use>
                    <use fill-opacity="0.75" fill="#D8D8D8" style="mix-blend-mode: overlay;" xlink:href="#path-2"></use>
                </g>
                <g id="Path-9" fill-rule="nonzero">
                    <use stroke="url(#linearGradient-1)" stroke-width="0.7" xlink:href="#path-3"></use>
                    <use stroke-opacity="0.75169837" stroke="#FFFFFF" stroke-width="1" xlink:href="#path-3"></use>
                </g>
            </g>
        </g>
    </g>
</svg>